<svg id="visual" viewBox="0 0 960 200" width="960" height="200" xmlns="http://www.w3.org/2000/svg" xmlns:xlink="http://www.w3.org/1999/xlink" version="1.1"><rect x="0" y="0" width="960" height="200" fill="#FFFFFF"></rect><path d="M0 66L22.8 68.7C45.7 71.3 91.3 76.7 137 77.5C182.7 78.3 228.3 74.7 274 73.8C319.7 73 365.3 75 411.2 71.5C457 68 503 59 548.8 56C594.7 53 640.3 56 686 59C731.7 62 777.3 65 823 64C868.7 63 914.3 58 937.2 55.5L960 53L960 0L937.2 0C914.3 0 868.7 0 823 0C777.3 0 731.7 0 686 0C640.3 0 594.7 0 548.8 0C503 0 457 0 411.2 0C365.3 0 319.7 0 274 0C228.3 0 182.7 0 137 0C91.3 0 45.7 0 22.8 0L0 0Z" fill="#7c00ff"></path><path d="M0 64L22.8 61.7C45.7 59.3 91.3 54.7 137 50.5C182.7 46.3 228.3 42.7 274 41.7C319.7 40.7 365.3 42.3 411.2 45.3C457 48.3 503 52.7 548.8 53.2C594.7 53.7 640.3 50.3 686 51.7C731.7 53 777.3 59 823 58.5C868.7 58 914.3 51 937.2 47.5L960 44L960 0L937.2 0C914.3 0 868.7 0 823 0C777.3 0 731.7 0 686 0C640.3 0 594.7 0 548.8 0C503 0 457 0 411.2 0C365.3 0 319.7 0 274 0C228.3 0 182.7 0 137 0C91.3 0 45.7 0 22.8 0L0 0Z" fill="#7100ff"></path><path d="M0 50L22.8 48.2C45.7 46.3 91.3 42.7 137 41.7C182.7 40.7 228.3 42.3 274 40.8C319.7 39.3 365.3 34.7 411.2 33.2C457 31.7 503 33.3 548.8 37.2C594.7 41 640.3 47 686 48.8C731.7 50.7 777.3 48.3 823 46.2C868.7 44 914.3 42 937.2 41L960 40L960 0L937.2 0C914.3 0 868.7 0 823 0C777.3 0 731.7 0 686 0C640.3 0 594.7 0 548.8 0C503 0 457 0 411.2 0C365.3 0 319.7 0 274 0C228.3 0 182.7 0 137 0C91.3 0 45.7 0 22.8 0L0 0Z" fill="#6500ff"></path><path d="M0 26L22.8 25.2C45.7 24.3 91.3 22.7 137 23.8C182.7 25 228.3 29 274 31.2C319.7 33.3 365.3 33.7 411.2 31.3C457 29 503 24 548.8 21.7C594.7 19.3 640.3 19.7 686 21.7C731.7 23.7 777.3 27.3 823 27.2C868.7 27 914.3 23 937.2 21L960 19L960 0L937.2 0C914.3 0 868.7 0 823 0C777.3 0 731.7 0 686 0C640.3 0 594.7 0 548.8 0C503 0 457 0 411.2 0C365.3 0 319.7 0 274 0C228.3 0 182.7 0 137 0C91.3 0 45.7 0 22.8 0L0 0Z" fill="#5700ff"></path><path d="M0 19L22.8 19.2C45.7 19.3 91.3 19.7 137 18.3C182.7 17 228.3 14 274 12.3C319.7 10.7 365.3 10.3 411.2 10.7C457 11 503 12 548.8 11.7C594.7 11.3 640.3 9.7 686 8.7C731.7 7.7 777.3 7.3 823 9.2C868.7 11 914.3 15 937.2 17L960 19L960 0L937.2 0C914.3 0 868.7 0 823 0C777.3 0 731.7 0 686 0C640.3 0 594.7 0 548.8 0C503 0 457 0 411.2 0C365.3 0 319.7 0 274 0C228.3 0 182.7 0 137 0C91.3 0 45.7 0 22.8 0L0 0Z" fill="#4600ff"></path></svg>