<svg id="visual" viewBox="0 0 960 300" width="960" height="300" xmlns="http://www.w3.org/2000/svg" xmlns:xlink="http://www.w3.org/1999/xlink" version="1.1"><rect x="0" y="0" width="960" height="300" fill="#FFFFFF"></rect><path d="M0 120L137 99L274 99L411 116L549 139L686 138L823 93L960 92L960 0L823 0L686 0L549 0L411 0L274 0L137 0L0 0Z" fill="#ff7300"></path><path d="M0 83L137 111L274 89L411 76L549 121L686 111L823 82L960 114L960 0L823 0L686 0L549 0L411 0L274 0L137 0L0 0Z" fill="#f86200"></path><path d="M0 62L137 79L274 52L411 74L549 92L686 91L823 65L960 53L960 0L823 0L686 0L549 0L411 0L274 0L137 0L0 0Z" fill="#f15000"></path><path d="M0 65L137 65L274 68L411 57L549 44L686 51L823 54L960 52L960 0L823 0L686 0L549 0L411 0L274 0L137 0L0 0Z" fill="#e93c00"></path><path d="M0 39L137 38L274 26L411 42L549 20L686 28L823 39L960 22L960 0L823 0L686 0L549 0L411 0L274 0L137 0L0 0Z" fill="#e12200"></path></svg>