<svg id="visual" viewBox="0 0 960 200" width="960" height="200" xmlns="http://www.w3.org/2000/svg" xmlns:xlink="http://www.w3.org/1999/xlink" version="1.1"><rect x="0" y="0" width="960" height="200" fill="#FFFFFF"></rect><path d="M0 73L22.8 72.5C45.7 72 91.3 71 137 70.5C182.7 70 228.3 70 274 69.2C319.7 68.3 365.3 66.7 411.2 67.7C457 68.7 503 72.3 548.8 71.5C594.7 70.7 640.3 65.3 686 63.2C731.7 61 777.3 62 823 61.5C868.7 61 914.3 59 937.2 58L960 57L960 0L937.2 0C914.3 0 868.7 0 823 0C777.3 0 731.7 0 686 0C640.3 0 594.7 0 548.8 0C503 0 457 0 411.2 0C365.3 0 319.7 0 274 0C228.3 0 182.7 0 137 0C91.3 0 45.7 0 22.8 0L0 0Z" fill="#9f90ff"></path><path d="M0 50L22.8 51.2C45.7 52.3 91.3 54.7 137 53.8C182.7 53 228.3 49 274 46.3C319.7 43.7 365.3 42.3 411.2 45.8C457 49.3 503 57.7 548.8 59.7C594.7 61.7 640.3 57.3 686 55.2C731.7 53 777.3 53 823 54.5C868.7 56 914.3 59 937.2 60.5L960 62L960 0L937.2 0C914.3 0 868.7 0 823 0C777.3 0 731.7 0 686 0C640.3 0 594.7 0 548.8 0C503 0 457 0 411.2 0C365.3 0 319.7 0 274 0C228.3 0 182.7 0 137 0C91.3 0 45.7 0 22.8 0L0 0Z" fill="#856fe2"></path><path d="M0 31L22.8 32.3C45.7 33.7 91.3 36.3 137 36.8C182.7 37.3 228.3 35.7 274 36.7C319.7 37.7 365.3 41.3 411.2 40.5C457 39.7 503 34.3 548.8 34.3C594.7 34.3 640.3 39.7 686 43.2C731.7 46.7 777.3 48.3 823 46.7C868.7 45 914.3 40 937.2 37.5L960 35L960 0L937.2 0C914.3 0 868.7 0 823 0C777.3 0 731.7 0 686 0C640.3 0 594.7 0 548.8 0C503 0 457 0 411.2 0C365.3 0 319.7 0 274 0C228.3 0 182.7 0 137 0C91.3 0 45.7 0 22.8 0L0 0Z" fill="#6b4ec5"></path><path d="M0 30L22.8 28.8C45.7 27.7 91.3 25.3 137 26C182.7 26.7 228.3 30.3 274 32.5C319.7 34.7 365.3 35.3 411.2 34.5C457 33.7 503 31.3 548.8 30.3C594.7 29.3 640.3 29.7 686 28.3C731.7 27 777.3 24 823 22.8C868.7 21.7 914.3 22.3 937.2 22.7L960 23L960 0L937.2 0C914.3 0 868.7 0 823 0C777.3 0 731.7 0 686 0C640.3 0 594.7 0 548.8 0C503 0 457 0 411.2 0C365.3 0 319.7 0 274 0C228.3 0 182.7 0 137 0C91.3 0 45.7 0 22.8 0L0 0Z" fill="#522ca8"></path><path d="M0 17L22.8 16C45.7 15 91.3 13 137 12.5C182.7 12 228.3 13 274 13.8C319.7 14.7 365.3 15.3 411.2 16.5C457 17.7 503 19.3 548.8 19.2C594.7 19 640.3 17 686 15.2C731.7 13.3 777.3 11.7 823 12C868.7 12.3 914.3 14.7 937.2 15.8L960 17L960 0L937.2 0C914.3 0 868.7 0 823 0C777.3 0 731.7 0 686 0C640.3 0 594.7 0 548.8 0C503 0 457 0 411.2 0C365.3 0 319.7 0 274 0C228.3 0 182.7 0 137 0C91.3 0 45.7 0 22.8 0L0 0Z" fill="#38008c"></path></svg>